<svg xmlns="http://www.w3.org/2000/svg" xmlns:xlink="http://www.w3.org/1999/xlink" width="308" zoomAndPan="magnify" viewBox="0 0 230.87999 227.999995" height="304" preserveAspectRatio="xMidYMid meet" version="1.0"><defs><g/><clipPath id="4a92132121"><path d="M 102 5.304688 L 108 5.304688 L 108 10 L 102 10 Z M 102 5.304688 " clip-rule="nonzero"/></clipPath><clipPath id="49bf983004"><path d="M 7.535156 74 L 15 74 L 15 83 L 7.535156 83 Z M 7.535156 74 " clip-rule="nonzero"/></clipPath><clipPath id="bfd0156f0b"><path d="M 12 7 L 222.878906 7 L 222.878906 222.671875 L 12 222.671875 Z M 12 7 " clip-rule="nonzero"/></clipPath></defs><path fill="#474091" d="M 91.242188 8.285156 C 91.214844 8.015625 91.167969 7.722656 91.089844 7.402344 C 90.664062 7.878906 90.8125 8.128906 91.242188 8.285156 Z M 91.242188 8.285156 " fill-opacity="1" fill-rule="nonzero"/><path fill="#474091" d="M 128.417969 7.300781 C 129.324219 7.308594 130.234375 7.3125 130.234375 7.3125 C 130.40625 7.351562 130.515625 7.367188 130.585938 7.371094 C 130.609375 7.367188 130.636719 7.363281 130.664062 7.363281 C 130.667969 7.242188 127.175781 6.226562 127.074219 7.296875 C 127.109375 7.292969 127.136719 7.292969 127.171875 7.292969 C 127.511719 7.292969 127.964844 7.296875 128.417969 7.300781 Z M 128.417969 7.300781 " fill-opacity="1" fill-rule="nonzero"/><path fill="#474091" d="M 110.980469 8.023438 C 110.566406 7.851562 110.109375 7.71875 109.628906 7.632812 C 110.011719 7.761719 110.472656 7.894531 110.980469 8.023438 Z M 110.980469 8.023438 " fill-opacity="1" fill-rule="nonzero"/><path fill="#474091" d="M 121.050781 9.148438 C 120.34375 8.949219 119.617188 8.792969 118.867188 8.683594 C 118.226562 8.59375 117.570312 8.539062 116.902344 8.53125 C 116.234375 8.554688 115.554688 8.621094 114.863281 8.742188 C 114.863281 8.742188 114.875 8.761719 114.890625 8.789062 C 115.847656 8.925781 116.839844 9.035156 117.847656 9.097656 C 118.917969 9.195312 119.996094 9.199219 121.050781 9.148438 Z M 121.050781 9.148438 " fill-opacity="1" fill-rule="nonzero"/><g clip-path="url(#4a92132121)"><path fill="#474091" d="M 106.46875 8.226562 C 107.277344 8.046875 107.816406 7.925781 107.816406 7.925781 C 107.816406 7.925781 107.339844 7.269531 106.863281 6.609375 C 106.375 5.957031 105.890625 5.304688 105.890625 5.304688 C 101.859375 5.367188 102.355469 6.46875 102.777344 7.605469 C 102.984375 8.171875 103.164062 8.746094 102.78125 9.214844 C 103.027344 9.148438 103.277344 9.078125 103.53125 9.015625 C 104.597656 8.726562 105.667969 8.441406 106.46875 8.226562 Z M 106.46875 8.226562 " fill-opacity="1" fill-rule="nonzero"/></g><path fill="#474091" d="M 102.773438 9.222656 C 102.773438 9.222656 102.777344 9.214844 102.78125 9.214844 C 101.976562 9.429688 101.210938 9.652344 100.613281 9.859375 C 99.824219 10.113281 99.300781 10.28125 99.300781 10.28125 C 100.355469 10.171875 101.121094 10.019531 101.675781 9.832031 C 102.230469 9.65625 102.574219 9.460938 102.773438 9.222656 Z M 102.773438 9.222656 " fill-opacity="1" fill-rule="nonzero"/><path fill="#474091" d="M 170.484375 210.941406 C 170.246094 211.277344 169.898438 211.65625 169.503906 212.046875 C 169.917969 211.921875 170.320312 211.765625 170.699219 211.539062 Z M 170.484375 210.941406 " fill-opacity="1" fill-rule="nonzero"/><path fill="#474091" d="M 169.929688 209.441406 L 170.484375 210.941406 C 170.96875 210.207031 170.988281 209.644531 169.929688 209.441406 Z M 169.929688 209.441406 " fill-opacity="1" fill-rule="nonzero"/><path fill="#474091" d="M 156.25 216.277344 C 155.152344 217.40625 153.988281 218.429688 153.988281 218.429688 C 154.996094 218.234375 156.675781 217.730469 157.8125 216.984375 C 158.960938 216.242188 159.542969 215.269531 158.417969 214.074219 C 158.417969 214.074219 157.335938 215.175781 156.25 216.277344 Z M 156.25 216.277344 " fill-opacity="1" fill-rule="nonzero"/><path fill="#474091" d="M 189.933594 178.511719 L 188.941406 177.832031 C 189.003906 178.261719 189.242188 178.566406 189.933594 178.511719 Z M 189.933594 178.511719 " fill-opacity="1" fill-rule="nonzero"/><path fill="#474091" d="M 21.457031 72.5 C 21.375 72.273438 21.25 72.046875 21.0625 71.804688 C 21.0625 71.804688 21.214844 72.078125 21.457031 72.5 Z M 21.457031 72.5 " fill-opacity="1" fill-rule="nonzero"/><path fill="#474091" d="M 116.140625 218.976562 L 116.019531 218.804688 C 116.011719 218.875 116.054688 218.929688 116.140625 218.976562 Z M 116.140625 218.976562 " fill-opacity="1" fill-rule="nonzero"/><path fill="#474091" d="M 173.125 28.039062 C 173.40625 27.757812 173.597656 27.566406 173.597656 27.566406 C 173.363281 27.6875 173.21875 27.851562 173.125 28.039062 Z M 173.125 28.039062 " fill-opacity="1" fill-rule="nonzero"/><path fill="#474091" d="M 217.136719 140.191406 C 217.070312 140.195312 217.011719 140.195312 216.949219 140.199219 C 216.945312 140.296875 216.941406 140.390625 216.9375 140.484375 C 217.003906 140.386719 217.066406 140.292969 217.136719 140.191406 Z M 217.136719 140.191406 " fill-opacity="1" fill-rule="nonzero"/><path fill="#474091" d="M 215.824219 149.332031 C 216.265625 146.660156 216.738281 143.425781 216.933594 140.636719 C 216.9375 140.585938 216.9375 140.535156 216.9375 140.484375 C 215.996094 141.902344 215.574219 143.085938 215.539062 144.398438 C 215.503906 145.796875 215.730469 147.320312 215.824219 149.332031 Z M 215.824219 149.332031 " fill-opacity="1" fill-rule="nonzero"/><path fill="#474091" d="M 207.808594 171.160156 C 208.019531 171.335938 208.257812 171.507812 208.539062 171.679688 C 208.503906 171.042969 208.222656 170.96875 207.808594 171.160156 Z M 207.808594 171.160156 " fill-opacity="1" fill-rule="nonzero"/><path fill="#474091" d="M 201.78125 170.195312 C 201.78125 170.195312 202.519531 169.152344 203.222656 168.078125 C 203.898438 166.988281 204.578125 165.902344 204.578125 165.902344 C 205.464844 167.144531 204.917969 168.636719 204.253906 169.957031 C 203.605469 171.289062 202.976562 172.515625 203.871094 173.460938 C 204.957031 173.789062 206.792969 171.640625 207.808594 171.164062 C 206.027344 169.710938 206.550781 168.253906 206.894531 167.074219 C 207.277344 165.753906 207.390625 164.824219 203.761719 164.675781 C 203.601562 164.988281 203.441406 165.308594 203.289062 165.65625 C 202.753906 166.859375 202.28125 168.300781 201.78125 170.195312 Z M 201.78125 170.195312 " fill-opacity="1" fill-rule="nonzero"/><path fill="#474091" d="M 207.46875 154.5625 C 207.285156 156.503906 206.9375 158.003906 206.515625 159.257812 C 206.183594 160.117188 205.820312 160.859375 205.445312 161.566406 C 205.847656 161.34375 206.273438 161.28125 206.710938 161.21875 C 207.84375 161.050781 209.132812 160.867188 210.039062 157.417969 C 210.039062 157.417969 209.398438 156.699219 208.757812 155.976562 C 208.113281 155.269531 207.46875 154.5625 207.46875 154.5625 Z M 207.46875 154.5625 " fill-opacity="1" fill-rule="nonzero"/><path fill="#474091" d="M 203.664062 164.671875 C 203.699219 164.671875 203.726562 164.675781 203.761719 164.675781 C 204.164062 163.902344 204.574219 163.203125 204.949219 162.488281 C 205.113281 162.183594 205.28125 161.878906 205.445312 161.566406 C 205.320312 161.636719 205.199219 161.71875 205.078125 161.824219 C 204.554688 162.269531 204.148438 163.113281 203.664062 164.671875 Z M 203.664062 164.671875 " fill-opacity="1" fill-rule="nonzero"/><path fill="#474091" d="M 189.492188 189.167969 C 189.949219 188.679688 190.382812 188.152344 190.785156 187.578125 C 190.785156 187.578125 190.765625 187.570312 190.730469 187.5625 C 189.960938 188.140625 189.179688 188.769531 188.421875 189.441406 C 187.597656 190.128906 186.832031 190.890625 186.121094 191.671875 C 186.765625 191.3125 187.386719 190.90625 187.996094 190.453125 C 188.511719 190.066406 189.011719 189.636719 189.492188 189.167969 Z M 189.492188 189.167969 " fill-opacity="1" fill-rule="nonzero"/><path fill="#474091" d="M 194.039062 185.332031 C 194.453125 185.160156 194.871094 184.933594 195.269531 184.652344 C 194.910156 184.832031 194.488281 185.066406 194.039062 185.332031 Z M 194.039062 185.332031 " fill-opacity="1" fill-rule="nonzero"/><path fill="#474091" d="M 192.050781 185.632812 C 191.179688 185.453125 190.785156 184.769531 191.261719 183.347656 C 191.261719 183.347656 192.242188 183.320312 193.226562 183.296875 C 194.21875 183.253906 195.210938 183.210938 195.210938 183.210938 C 195.210938 183.210938 195.199219 182.722656 195.183594 181.988281 C 195.179688 181.265625 195.125 180.285156 195.050781 179.308594 C 194.914062 177.359375 194.734375 175.476562 194.734375 175.476562 C 194.773438 176.855469 194.285156 178 193.617188 178.96875 C 192.957031 179.949219 192.015625 180.695312 191.273438 181.417969 C 189.789062 182.867188 188.769531 184.023438 190.777344 186.15625 C 190.777344 186.15625 190.003906 186.316406 189.230469 186.480469 C 188.464844 186.636719 187.699219 186.789062 187.699219 186.789062 C 187.699219 186.789062 188.46875 186.988281 189.238281 187.191406 C 189.894531 187.351562 190.550781 187.515625 190.734375 187.5625 C 191.917969 186.671875 193.0625 185.90625 194.039062 185.332031 C 193.3125 185.632812 192.605469 185.753906 192.050781 185.632812 Z M 192.050781 185.632812 " fill-opacity="1" fill-rule="nonzero"/><path fill="#474091" d="M 182.21875 198.199219 C 181.570312 198.839844 180.925781 199.476562 180.925781 199.476562 C 180.777344 199.574219 180.691406 199.640625 180.636719 199.683594 C 180.621094 199.703125 180.605469 199.726562 180.585938 199.746094 C 180.667969 199.832031 183.851562 198.078125 183.171875 197.25 C 183.148438 197.277344 183.128906 197.296875 183.105469 197.324219 C 182.863281 197.5625 182.539062 197.882812 182.21875 198.199219 Z M 182.21875 198.199219 " fill-opacity="1" fill-rule="nonzero"/><path fill="#474091" d="M 200.703125 175.460938 C 200.03125 176.285156 199.597656 176.9375 199.339844 177.460938 C 199.070312 177.976562 198.964844 178.359375 198.996094 178.667969 C 198.996094 178.671875 198.996094 178.675781 198.996094 178.679688 C 199.410156 177.957031 199.796875 177.261719 200.074219 176.691406 C 200.449219 175.953125 200.703125 175.460938 200.703125 175.460938 Z M 200.703125 175.460938 " fill-opacity="1" fill-rule="nonzero"/><path fill="#474091" d="M 200.132812 179.816406 C 199.589844 179.5625 199.054688 179.28125 198.996094 178.679688 C 198.871094 178.902344 198.738281 179.128906 198.609375 179.355469 C 198.054688 180.3125 197.5 181.273438 197.085938 181.992188 C 196.640625 182.691406 196.34375 183.160156 196.34375 183.160156 C 196.34375 183.160156 197.144531 183.289062 197.949219 183.414062 C 198.753906 183.53125 199.554688 183.652344 199.554688 183.652344 C 202.363281 180.75 201.234375 180.320312 200.132812 179.816406 Z M 200.132812 179.816406 " fill-opacity="1" fill-rule="nonzero"/><path fill="#474091" d="M 8.773438 84.011719 C 8.703125 83.605469 8.679688 83.089844 8.683594 82.535156 C 8.480469 82.917969 8.304688 83.3125 8.199219 83.742188 Z M 8.773438 84.011719 " fill-opacity="1" fill-rule="nonzero"/><path fill="#474091" d="M 10.222656 84.679688 L 8.773438 84.011719 C 8.949219 84.875 9.328125 85.285156 10.222656 84.679688 Z M 10.222656 84.679688 " fill-opacity="1" fill-rule="nonzero"/><g clip-path="url(#49bf983004)"><path fill="#474091" d="M 13.347656 78.113281 C 14.738281 77.042969 15.285156 76.105469 13.152344 74.433594 C 13.152344 74.433594 12.503906 75.574219 11.855469 76.71875 C 11.53125 77.292969 11.207031 77.867188 10.96875 78.296875 C 10.722656 78.726562 10.570312 79.019531 10.570312 79.019531 C 8.578125 77.992188 7.589844 77.472656 9.304688 74.597656 C 8.140625 74.914062 7.964844 78.160156 7.726562 79.882812 L 8.433594 78.851562 C 8.742188 79.789062 8.667969 81.269531 8.683594 82.535156 C 9.773438 80.433594 11.925781 79.160156 13.347656 78.113281 Z M 13.347656 78.113281 " fill-opacity="1" fill-rule="nonzero"/></g><path fill="#474091" d="M 15.09375 73.246094 C 15.09375 73.246094 15.082031 71.699219 15.074219 70.152344 C 15.050781 68.578125 15.148438 67.027344 15.148438 67.027344 C 14.578125 67.878906 13.746094 69.425781 13.46875 70.761719 C 13.179688 72.097656 13.449219 73.199219 15.09375 73.246094 Z M 15.09375 73.246094 " fill-opacity="1" fill-rule="nonzero"/><path fill="#474091" d="M 21.023438 68.726562 C 21.59375 67.859375 22.191406 67.082031 22.171875 66.070312 C 20.746094 66.972656 20.78125 66.40625 21.195312 65.417969 C 21.617188 64.4375 22.410156 63.046875 22.40625 62.285156 C 17.441406 66.148438 22.253906 65.453125 21.023438 68.726562 Z M 21.023438 68.726562 " fill-opacity="1" fill-rule="nonzero"/><path fill="#474091" d="M 21.023438 68.726562 C 20.765625 69.132812 20.515625 69.5625 20.375 70.054688 C 20.699219 69.539062 20.878906 69.121094 21.023438 68.726562 Z M 21.023438 68.726562 " fill-opacity="1" fill-rule="nonzero"/><path fill="#474091" d="M 41.527344 39.828125 L 41.734375 39.859375 C 41.691406 39.804688 41.621094 39.792969 41.527344 39.828125 Z M 41.527344 39.828125 " fill-opacity="1" fill-rule="nonzero"/><g clip-path="url(#bfd0156f0b)"><path fill="#474091" d="M 222.113281 108.246094 C 221.65625 107.003906 221.136719 105.542969 220.785156 104.132812 C 220.4375 102.722656 220.371094 101.34375 220.984375 100.195312 L 218.800781 100.609375 C 218.785156 100.457031 218.769531 100.304688 218.757812 100.152344 C 218.570312 97.539062 218.449219 95.882812 218.464844 94.761719 C 218.445312 93.585938 218.515625 93.003906 218.621094 92.480469 C 218.722656 91.953125 218.84375 91.488281 218.863281 90.535156 C 218.875 90.058594 218.859375 89.460938 218.800781 88.671875 C 218.714844 87.890625 218.578125 86.921875 218.371094 85.691406 C 218.371094 85.691406 217.546875 85.210938 216.71875 84.730469 C 216.488281 84.601562 216.261719 84.472656 216.050781 84.351562 C 215.90625 83.816406 215.765625 83.28125 215.617188 82.75 C 215.628906 82.734375 215.640625 82.722656 215.65625 82.707031 C 215.5625 82.441406 215.464844 82.171875 215.367188 81.90625 C 213.910156 76.9375 212.050781 72.140625 209.820312 67.554688 C 209.46875 66.394531 208.941406 65.214844 208.105469 64.109375 C 208.105469 64.109375 208.125 64.179688 208.148438 64.285156 C 207.03125 62.203125 205.835938 60.167969 204.566406 58.183594 C 204.703125 58.070312 204.832031 57.9375 204.945312 57.746094 C 204.117188 56.519531 203.148438 55.453125 202.089844 54.511719 C 194.449219 43.753906 184.554688 34.710938 173.109375 28.070312 C 173.113281 28.058594 173.121094 28.050781 173.125 28.039062 C 173.117188 28.046875 173.109375 28.058594 173.101562 28.066406 C 172.1875 27.535156 171.261719 27.023438 170.332031 26.523438 C 170.671875 26.144531 171.050781 25.75 171.433594 25.355469 C 173.394531 23.328125 175.421875 21.15625 171.449219 19.464844 C 172.972656 21.328125 172.253906 22.96875 170.910156 23.925781 C 169.554688 24.898438 167.632812 25.144531 166.386719 24.242188 C 166.40625 24.324219 166.410156 24.429688 166.402344 24.546875 C 165.855469 24.285156 165.308594 24.027344 164.757812 23.78125 C 166.070312 23.335938 166.308594 22.5 165.832031 21.644531 C 165.324219 20.726562 164.015625 19.777344 162.472656 19.472656 C 163.105469 19.769531 163.621094 20.121094 164.015625 20.511719 C 164.402344 20.914062 164.671875 21.34375 164.832031 21.761719 C 165.113281 22.511719 165.011719 23.214844 164.589844 23.707031 C 163.761719 23.335938 162.925781 22.980469 162.082031 22.632812 C 161.902344 22.5 161.722656 22.371094 161.542969 22.238281 C 161.808594 22.128906 162.105469 21.933594 162.445312 21.609375 C 163.367188 20.066406 161.800781 18.347656 159.558594 16.699219 C 158.429688 15.902344 157.15625 15.089844 155.96875 14.300781 C 154.769531 13.554688 153.667969 12.804688 152.921875 12.027344 C 151.316406 11.8125 150.4375 12.09375 149.8125 12.539062 C 149.183594 13.003906 148.785156 13.71875 148.105469 14.601562 C 147.941406 13.550781 147.117188 12.65625 146.253906 11.84375 C 145.394531 11.023438 144.507812 10.203125 144.273438 9.148438 C 142.496094 9.515625 141.015625 9.527344 139.660156 9.308594 C 138.308594 9.078125 137.082031 8.601562 135.832031 8.230469 C 134.589844 7.839844 133.332031 7.433594 131.960938 7.332031 C 131.542969 7.308594 131.105469 7.328125 130.664062 7.363281 C 130.664062 7.375 130.636719 7.375 130.585938 7.371094 C 129.605469 7.460938 128.566406 7.695312 127.453125 8.179688 C 127.160156 7.789062 127.054688 7.503906 127.074219 7.296875 C 126.792969 7.304688 126.605469 7.3125 126.605469 7.3125 L 126.988281 7.746094 C 125.761719 8.46875 124.300781 8.863281 122.734375 9.027344 C 122.183594 9.085938 121.621094 9.121094 121.050781 9.148438 C 121.550781 9.292969 122.042969 9.453125 122.519531 9.648438 C 122.847656 9.789062 123.160156 9.949219 123.480469 10.105469 C 122.585938 10.183594 121.457031 10.332031 120.328125 10.464844 C 118.722656 10.632812 117.136719 10.882812 116.226562 11.03125 C 116.078125 10.777344 115.882812 10.445312 115.6875 10.113281 C 115.335938 9.53125 114.988281 8.953125 114.890625 8.789062 C 113.425781 8.582031 112.078125 8.308594 110.980469 8.023438 C 111.703125 8.324219 112.289062 8.742188 112.597656 9.21875 C 112.824219 9.5625 112.894531 9.914062 112.777344 10.253906 C 112.53125 10.269531 112.285156 10.285156 112.039062 10.296875 C 111.519531 10.335938 110.996094 10.351562 110.476562 10.378906 C 110.359375 10.269531 110.238281 10.152344 110.117188 10.039062 C 109.386719 9.367188 108.65625 8.691406 108.65625 8.691406 C 108.65625 8.691406 108.320312 9.042969 107.8125 9.574219 C 107.546875 9.84375 107.246094 10.171875 106.925781 10.527344 C 105.136719 10.59375 103.371094 10.707031 101.640625 10.773438 C 99.40625 10.9375 97.246094 11.164062 95.246094 11.511719 C 93.585938 11.855469 92.039062 12.265625 90.65625 12.816406 C 91.257812 12.277344 92.085938 11.929688 92.90625 11.65625 C 94.304688 11.171875 95.617188 10.753906 95.652344 9.453125 C 95.117188 8.449219 92.300781 8.667969 91.242188 8.285156 C 91.476562 10.574219 90.082031 11.230469 89.003906 11.824219 C 87.914062 12.425781 87.210938 12.957031 88.925781 15.046875 C 88.8125 15.40625 88.824219 15.699219 89.085938 15.875 C 88.417969 16.074219 87.773438 16.25 87.144531 16.445312 C 86.8125 16.542969 86.480469 16.644531 86.144531 16.746094 C 86.28125 16.785156 86.425781 16.816406 86.585938 16.824219 C 87.21875 16.875 88.027344 16.609375 89.289062 15.96875 C 89.714844 16.105469 90.503906 16.070312 91.875 15.757812 C 90.257812 17.355469 88.152344 17.90625 85.855469 17.9375 C 84.984375 17.992188 84.082031 17.96875 83.183594 17.929688 C 83.375 17.824219 83.570312 17.714844 83.757812 17.625 C 84.597656 17.25 85.382812 16.984375 86.144531 16.746094 C 85.699219 16.621094 85.355469 16.363281 85.003906 16.097656 C 84.085938 15.414062 83.042969 14.632812 79.96875 16.429688 C 79.96875 16.429688 79.933594 17.054688 79.890625 17.804688 C 79.597656 17.796875 79.300781 17.785156 79.023438 17.792969 C 79.023438 17.792969 79.167969 17.542969 79.390625 17.167969 C 79.613281 16.789062 79.917969 16.300781 80.226562 15.816406 C 80.859375 14.847656 81.492188 13.875 81.492188 13.875 C 75.921875 15.789062 69.527344 17.085938 63.46875 19.277344 C 57.429688 21.429688 51.746094 24.40625 48.132812 28.671875 L 51.027344 29.523438 C 50.546875 29.929688 50.058594 30.324219 49.566406 30.703125 C 49.082031 31.09375 48.601562 31.484375 48.109375 31.859375 C 47.132812 32.609375 46.140625 33.3125 45.144531 33.980469 C 43.207031 35.386719 41.238281 36.644531 39.453125 37.914062 C 37.695312 39.214844 36 40.394531 34.679688 41.679688 C 33.347656 42.953125 32.28125 44.207031 31.648438 45.496094 C 35.535156 44.3125 35.007812 45.636719 33.507812 47.464844 C 33.152344 47.9375 32.734375 48.445312 32.300781 48.960938 C 32.15625 49.027344 32.003906 49.085938 31.847656 49.132812 L 32.042969 49.265625 C 30.804688 50.730469 29.527344 52.199219 29.375 53.027344 C 30.082031 52.460938 30.796875 51.832031 31.507812 51.164062 C 31.957031 50.730469 32.394531 50.269531 32.824219 49.800781 L 33.691406 50.394531 C 31.796875 52.582031 30.644531 53.933594 29.796875 54.757812 C 28.980469 55.605469 28.523438 55.96875 28.074219 56.261719 C 27.632812 56.5625 27.21875 56.804688 26.53125 57.464844 C 26.191406 57.792969 25.777344 58.226562 25.261719 58.828125 C 24.773438 59.441406 24.183594 60.222656 23.460938 61.238281 C 23.460938 61.238281 23.707031 62.164062 23.953125 63.089844 C 24.078125 63.542969 24.207031 64 24.300781 64.34375 C 24.40625 64.6875 24.476562 64.914062 24.476562 64.914062 C 24.675781 65.234375 24.910156 63.003906 25.496094 60.847656 C 26.042969 58.671875 27.121094 56.691406 28.542969 57.519531 C 28.433594 58.320312 28.273438 59.132812 28.078125 59.953125 C 27.898438 60.777344 27.707031 61.625 27.480469 62.476562 C 27.257812 63.324219 27.011719 64.183594 26.761719 65.046875 C 26.515625 65.910156 26.304688 66.804688 26.078125 67.6875 C 25.859375 68.574219 25.644531 69.460938 25.449219 70.351562 C 25.269531 71.242188 25.148438 72.148438 25.039062 73.039062 C 24.933594 73.933594 24.867188 74.820312 24.84375 75.695312 C 24.832031 76.574219 24.910156 77.453125 25.027344 78.304688 C 25.027344 78.304688 23.972656 76.730469 22.976562 75.101562 C 22.390625 74.128906 21.820312 73.140625 21.457031 72.5 C 21.917969 73.765625 20.859375 74.882812 19.546875 76.390625 C 18.757812 77.273438 17.847656 78.28125 17.058594 79.484375 C 16.324219 80.703125 15.714844 82.125 15.488281 83.777344 C 15.488281 83.777344 16.261719 82.492188 17.035156 81.210938 C 17.425781 80.578125 17.796875 79.945312 18.105469 79.480469 C 18.417969 79.015625 18.625 78.707031 18.625 78.707031 C 19.5 80.167969 19.8125 81.847656 19.703125 83.660156 C 19.566406 85.46875 19.1875 87.453125 18.726562 89.519531 C 18.605469 90.035156 18.488281 90.558594 18.367188 91.082031 C 18.269531 91.609375 18.171875 92.140625 18.078125 92.671875 C 17.890625 93.738281 17.730469 94.808594 17.621094 95.871094 C 17.433594 97.988281 17.585938 100.070312 18.195312 101.917969 C 18.367188 99.945312 18.550781 97.976562 20.132812 97.800781 C 20.273438 97.976562 20.378906 98.183594 20.464844 98.40625 C 20.460938 99.144531 20.507812 99.285156 20.675781 99.191406 C 20.800781 99.980469 20.746094 100.921875 20.574219 101.90625 C 20.316406 103.574219 19.832031 105.375 19.324219 106.714844 C 19.117188 106.675781 18.925781 106.613281 18.742188 106.535156 C 18.527344 105.214844 18.621094 103.914062 19.53125 102.117188 C 19.53125 102.117188 18.738281 102.246094 17.949219 102.375 C 17.15625 102.515625 16.363281 102.65625 16.363281 102.65625 C 16.382812 102.960938 16.414062 103.257812 16.445312 103.558594 C 16.441406 103.554688 16.441406 103.550781 16.441406 103.546875 C 15.832031 101.875 15.746094 99.761719 15.601562 97.726562 C 15.421875 93.671875 15.597656 89.9375 13.238281 90.511719 C 12.824219 92.660156 12.84375 94.792969 13.1875 96.828125 C 13.574219 98.867188 14.160156 100.800781 14.800781 102.59375 C 15.476562 104.390625 16.140625 106.042969 16.539062 107.5625 C 16.972656 109.085938 17.1875 110.472656 16.863281 111.769531 C 16.863281 111.769531 16.015625 110.742188 15.167969 109.71875 C 14.746094 109.191406 14.324219 108.667969 14.007812 108.273438 C 13.683594 107.875 13.492188 107.609375 13.492188 107.609375 C 13.492188 107.609375 13.546875 107.867188 13.660156 108.257812 C 13.765625 108.644531 13.910156 109.160156 14.054688 109.679688 C 14.34375 110.703125 14.632812 111.730469 14.632812 111.730469 L 14.839844 110.511719 C 16.199219 111.359375 16.125 112.648438 15.917969 114.164062 C 15.726562 115.671875 15.332031 117.417969 15.882812 119.007812 C 15.882812 119.007812 15.015625 118.539062 14.144531 118.070312 C 13.273438 117.582031 12.40625 117.097656 12.40625 117.097656 C 12.40625 117.097656 12.429688 117.484375 12.46875 118.070312 C 12.515625 118.652344 12.535156 119.433594 12.628906 120.210938 C 12.804688 121.765625 12.976562 123.320312 12.976562 123.320312 L 13.773438 122.421875 C 16.460938 132.15625 18.058594 140.40625 19.355469 149.695312 C 19.355469 149.695312 19.316406 149.351562 19.253906 148.835938 C 19.199219 148.316406 19.101562 147.636719 19.0625 146.941406 C 18.96875 145.558594 18.871094 144.179688 18.871094 144.179688 C 19.652344 144.398438 20.695312 147.066406 21.195312 149.507812 C 22.015625 148.789062 21.621094 146.992188 21.429688 145.296875 C 21.242188 143.898438 21.089844 142.628906 21.574219 142.210938 C 22.003906 144.65625 22.53125 147.085938 23.160156 149.496094 C 23.195312 150.066406 23.214844 150.625 23.226562 151.183594 C 23.253906 152.476562 23.339844 153.757812 23.492188 155.28125 C 23.574219 156.039062 23.683594 156.859375 23.84375 157.753906 C 24.035156 158.636719 24.273438 159.597656 24.582031 160.660156 C 25.160156 160.726562 25.59375 159.777344 26.128906 158.824219 C 26.730469 160.425781 27.386719 162.007812 28.082031 163.578125 C 27.554688 163.949219 26.730469 163.921875 25.296875 163.09375 C 27.710938 165.273438 27.789062 166.542969 27.949219 167.640625 C 28.105469 168.722656 28.394531 169.597656 31.121094 170.738281 C 30.652344 170.339844 30.308594 169.488281 29.976562 168.640625 C 30.050781 168.398438 30.144531 168.238281 30.246094 168.113281 C 31.386719 170.347656 32.621094 172.542969 33.957031 174.695312 C 33.988281 176.527344 34.347656 178.363281 35.863281 180.753906 C 35.863281 180.753906 36.335938 181.15625 37.039062 181.765625 C 37.75 182.371094 38.738281 183.128906 39.707031 183.898438 C 40.445312 184.496094 41.195312 185.070312 41.84375 185.550781 C 42.347656 186.148438 42.855469 186.738281 43.378906 187.324219 C 43.125 187.527344 42.792969 187.582031 42.792969 187.582031 C 43.707031 188.320312 44.582031 189.097656 45.445312 189.886719 C 46.335938 190.652344 47.207031 191.441406 48.058594 192.242188 C 48.199219 192.378906 48.34375 192.503906 48.484375 192.640625 C 48.6875 192.835938 48.894531 193.03125 49.097656 193.226562 C 49.164062 193.667969 49.4375 194.09375 50.0625 194.441406 C 50.316406 194.574219 50.542969 194.671875 50.746094 194.746094 C 50.769531 194.769531 50.796875 194.789062 50.820312 194.8125 C 51.601562 195.519531 52.382812 196.21875 53.136719 196.917969 C 54.832031 198.390625 56.523438 199.761719 58.179688 200.929688 C 58.78125 201.328125 59.378906 201.691406 59.96875 202.039062 C 62.363281 203.695312 64.816406 205.226562 67.320312 206.632812 C 67.320312 206.652344 67.324219 206.667969 67.320312 206.6875 C 67.53125 206.789062 67.75 206.878906 67.960938 206.980469 C 69.023438 207.5625 70.09375 208.128906 71.175781 208.667969 C 70.304688 208.851562 69.574219 209.003906 69.574219 209.003906 C 74.863281 211.601562 80.296875 215.210938 86.128906 217.957031 C 91.917969 220.710938 98.039062 222.632812 103.605469 222.175781 L 102.15625 219.523438 C 102.785156 219.578125 103.40625 219.644531 104.023438 219.726562 C 104.640625 219.792969 105.257812 219.855469 105.867188 219.9375 C 107.085938 220.101562 108.285156 220.308594 109.464844 220.539062 C 111.824219 220.917969 114.105469 221.425781 116.261719 221.792969 C 118.421875 222.113281 120.457031 222.484375 122.296875 222.511719 C 124.132812 222.554688 125.773438 222.421875 127.132812 221.960938 C 123.546875 220.042969 124.855469 219.480469 127.207031 219.25 C 129.570312 218.910156 133.070312 218.921875 134.054688 218.246094 C 133.15625 218.144531 132.207031 218.082031 131.230469 218.050781 C 130.257812 218.03125 129.253906 218.066406 128.246094 218.140625 C 126.234375 218.300781 124.207031 218.4375 122.386719 218.675781 C 119.234375 218.992188 116.710938 219.25 116.144531 218.96875 L 116.363281 219.273438 C 116.363281 219.273438 115.539062 219.363281 114.296875 219.40625 C 113.058594 219.464844 111.394531 219.550781 109.722656 219.601562 C 108.046875 219.589844 106.371094 219.582031 105.113281 219.574219 C 104.480469 219.570312 103.953125 219.558594 103.585938 219.53125 C 103.21875 219.511719 103.007812 219.5 103.007812 219.5 L 103.429688 217.878906 C 114.3125 218.914062 125.339844 218.011719 135.964844 215.171875 C 135.96875 215.179688 135.96875 215.191406 135.972656 215.203125 C 135.972656 215.191406 135.972656 215.179688 135.972656 215.167969 C 136.992188 214.894531 138.003906 214.601562 139.015625 214.292969 C 139.046875 214.808594 139.054688 215.351562 139.0625 215.902344 C 139.105469 218.726562 139.207031 221.699219 143.207031 220.082031 C 140.816406 219.84375 140.167969 218.171875 140.4375 216.542969 C 140.714844 214.894531 141.898438 213.359375 143.414062 213.113281 C 143.34375 213.070312 143.269531 213 143.191406 212.910156 C 143.761719 212.707031 144.328125 212.5 144.894531 212.285156 C 144.28125 213.53125 144.699219 214.292969 145.640625 214.558594 C 146.425781 214.785156 147.5625 214.671875 148.644531 214.203125 C 149.910156 214.546875 149.5 214.902344 148.578125 215.277344 C 147.589844 215.667969 146.046875 216.09375 145.511719 216.636719 C 150.890625 217.308594 148.738281 215.234375 150.085938 213.726562 C 151.042969 213.886719 152.253906 213.8125 153.570312 213.609375 C 154.925781 213.371094 156.402344 213.046875 157.800781 212.761719 C 158.945312 212.492188 160.035156 212.285156 160.992188 212.230469 C 160.625 212.632812 160.476562 213.355469 160.628906 214.601562 C 160.628906 214.601562 161.894531 214.25 163.160156 213.902344 C 163.792969 213.726562 164.425781 213.550781 164.902344 213.414062 C 165.375 213.285156 165.691406 213.1875 165.691406 213.1875 C 166.375 215.324219 166.707031 216.394531 163.464844 217.210938 C 164.511719 217.8125 166.929688 215.640625 168.308594 214.59375 L 167.082031 214.816406 C 167.527344 213.9375 168.625 212.941406 169.507812 212.035156 C 167.253906 212.75 164.828125 212.125 163.089844 211.859375 C 162.703125 211.808594 162.351562 211.785156 162.042969 211.804688 C 162.953125 210.996094 163.285156 210.296875 163.394531 209.644531 C 163.507812 208.871094 163.289062 208.082031 163.148438 206.972656 C 164.003906 207.601562 165.21875 207.652344 166.402344 207.617188 C 167.589844 207.582031 168.792969 207.535156 169.707031 208.117188 C 170.703125 206.601562 171.738281 205.542969 172.855469 204.738281 C 173.972656 203.941406 175.175781 203.410156 176.320312 202.785156 C 177.476562 202.179688 178.652344 201.578125 179.691406 200.679688 C 180.003906 200.394531 180.300781 200.078125 180.585938 199.738281 C 180.582031 199.730469 180.597656 199.707031 180.636719 199.675781 C 181.269531 198.914062 181.835938 198.015625 182.28125 196.882812 C 182.761719 196.953125 183.039062 197.082031 183.171875 197.242188 C 183.363281 197.035156 183.492188 196.898438 183.492188 196.898438 L 182.914062 196.863281 C 183.273438 195.484375 184.027344 194.167969 185.023438 192.941406 C 185.367188 192.511719 185.742188 192.085938 186.121094 191.664062 C 185.671875 191.917969 185.210938 192.152344 184.734375 192.347656 C 182.402344 193.285156 180.0625 193.824219 177.75 194.082031 C 176.347656 194.261719 175.027344 194.402344 173.789062 194.5625 C 174.886719 193.570312 175.964844 192.542969 177.023438 191.488281 C 177.660156 191.9375 178.273438 192.367188 178.273438 192.367188 C 179.273438 191.226562 180.125 190.039062 180.894531 188.824219 C 181.628906 187.640625 182.246094 186.363281 182.871094 185.09375 C 184.90625 182.652344 186.792969 180.128906 188.535156 177.535156 L 188.941406 177.824219 C 188.898438 177.519531 189.496094 176.734375 190.460938 175.503906 C 190.949219 174.898438 191.546875 174.195312 192.230469 173.414062 C 192.890625 172.609375 193.621094 171.710938 194.414062 170.738281 C 194.441406 170.710938 194.464844 170.675781 194.488281 170.648438 C 201.285156 163.316406 206.910156 154.878906 211.054688 145.628906 C 211.085938 145.609375 211.113281 145.589844 211.144531 145.566406 C 211.621094 145.234375 212.085938 144.882812 212.390625 144.957031 C 212.683594 145.03125 212.828125 145.539062 212.503906 146.890625 C 212.542969 147.671875 212.992188 145.667969 213.039062 143.359375 C 213.082031 142.542969 213.074219 141.695312 213.003906 140.925781 C 213.273438 140.222656 213.535156 139.515625 213.785156 138.804688 C 214.242188 139.777344 215.179688 140.324219 216.953125 140.191406 C 217.058594 137.59375 216.9375 135.457031 216.238281 134.644531 L 216.867188 135.117188 C 216.867188 135.117188 216.5 133.886719 215.84375 132.238281 C 216.25 130.75 216.617188 129.25 216.945312 127.734375 C 217.71875 129.105469 218.628906 129.929688 219.964844 129.230469 C 219.964844 129.230469 219.394531 128.027344 218.828125 126.824219 C 218.550781 126.230469 218.238281 125.644531 218.003906 125.203125 C 217.769531 124.765625 217.613281 124.476562 217.613281 124.476562 C 220.308594 126.113281 219.574219 119.863281 221.597656 121.03125 C 221.597656 121.03125 221.566406 120.828125 221.488281 120.46875 C 221.414062 120.113281 221.308594 119.605469 221.179688 118.992188 C 220.902344 117.777344 220.621094 116.152344 220.179688 114.554688 C 219.773438 113.03125 219.394531 111.527344 219.054688 110.367188 C 219.074219 109.589844 219.085938 108.8125 219.085938 108.035156 L 220.984375 107.519531 C 220.984375 107.519531 220.773438 108.34375 220.5625 109.164062 C 220.453125 109.574219 220.347656 109.980469 220.265625 110.289062 C 220.175781 110.59375 220.117188 110.796875 220.117188 110.796875 C 221.710938 111.539062 222.425781 111.546875 222.640625 111.023438 C 222.871094 110.511719 222.566406 109.484375 222.113281 108.246094 Z M 34.984375 69.460938 C 35.277344 68.585938 35.570312 67.738281 35.777344 66.886719 C 35.828125 66.695312 35.867188 66.507812 35.914062 66.316406 C 36.652344 65.820312 37.335938 66.046875 37.898438 67.773438 C 37.898438 67.773438 36.820312 68.769531 35.738281 69.765625 C 35.171875 70.339844 34.609375 70.90625 34.210938 71.308594 C 34.507812 70.691406 34.773438 70.074219 34.984375 69.460938 Z M 36.480469 63.769531 C 36.621094 63.167969 36.761719 62.5625 36.910156 61.988281 C 37.027344 61.539062 37.152344 61.109375 37.289062 60.683594 C 37.511719 62.125 37.148438 63.0625 36.480469 63.769531 Z M 41.535156 65.039062 C 41.953125 64.992188 42.433594 65.070312 43.003906 65.304688 C 42.472656 65.910156 41.953125 66.515625 41.445312 67.128906 C 41.449219 66.753906 41.457031 66.371094 41.480469 65.988281 C 41.5 65.667969 41.519531 65.351562 41.535156 65.039062 Z M 28.738281 85.867188 C 28.886719 84.761719 28.867188 83.523438 28.800781 82.242188 C 28.761719 80.617188 28.617188 78.917969 28.554688 77.386719 C 28.550781 77.199219 28.554688 77.019531 28.554688 76.835938 C 28.78125 76.332031 29.023438 75.898438 29.28125 75.582031 C 29.039062 75.660156 28.808594 75.765625 28.582031 75.886719 C 28.628906 75.007812 28.730469 74.230469 28.933594 73.652344 C 29.097656 74.15625 29.820312 73.132812 30.703125 72 C 31.574219 72.308594 32.472656 71.050781 33.371094 69.601562 C 33.746094 69.664062 33.949219 70.246094 33.859375 71.664062 C 33.738281 71.789062 33.667969 71.859375 33.667969 71.859375 C 33.730469 71.859375 33.785156 71.851562 33.847656 71.851562 C 33.839844 71.929688 33.835938 72.003906 33.828125 72.089844 C 33.875 72.007812 33.90625 71.925781 33.949219 71.84375 C 35.464844 71.757812 36.441406 71.21875 37.191406 70.488281 C 37.996094 69.722656 38.496094 68.703125 38.96875 67.738281 C 39.386719 66.878906 39.804688 66.082031 40.367188 65.574219 C 40.347656 65.636719 40.328125 65.695312 40.304688 65.757812 C 40.050781 66.503906 39.828125 67.320312 39.582031 68.121094 C 39.363281 68.851562 39.148438 69.578125 38.941406 70.269531 C 38.5625 70.769531 38.179688 71.273438 37.808594 71.78125 C 37.703125 71.820312 37.609375 71.84375 37.535156 71.84375 C 37.527344 71.953125 37.542969 72.042969 37.566406 72.125 C 34.3125 76.628906 31.515625 81.359375 29.175781 86.253906 C 29.015625 86.140625 28.871094 86.007812 28.738281 85.867188 Z M 217.210938 87.410156 C 218.28125 89.207031 218.90625 91.214844 217.6875 91.816406 C 217.359375 89.960938 216.976562 88.125 216.539062 86.308594 C 216.765625 86.660156 216.992188 87.027344 217.210938 87.410156 Z M 161.476562 22.382812 C 161.417969 22.359375 161.359375 22.335938 161.300781 22.3125 C 161.328125 22.304688 161.351562 22.304688 161.375 22.296875 C 161.410156 22.328125 161.441406 22.355469 161.476562 22.382812 Z M 159.1875 20.480469 C 159.078125 20.394531 158.964844 20.316406 158.855469 20.230469 C 158.855469 20.230469 158.992188 20.339844 159.210938 20.515625 C 159.285156 20.621094 159.355469 20.730469 159.429688 20.839844 C 159.664062 21.203125 159.894531 21.578125 160.160156 21.863281 C 159.078125 21.445312 157.992188 21.046875 156.890625 20.667969 C 157.933594 19.160156 158.59375 19.640625 159.1875 20.480469 Z M 115.898438 11.089844 C 115.617188 11.136719 115.453125 11.164062 115.453125 11.164062 C 115.335938 11.019531 115.304688 10.855469 115.3125 10.699219 C 115.515625 10.835938 115.71875 10.972656 115.898438 11.089844 Z M 113.867188 9.753906 C 113.867188 9.753906 114.117188 9.917969 114.460938 10.140625 C 114.253906 10.160156 114.046875 10.179688 113.839844 10.195312 C 113.851562 10.054688 113.863281 9.910156 113.867188 9.753906 Z M 64.527344 22.339844 C 64.320312 22.507812 64.121094 22.675781 63.921875 22.84375 C 63.875 22.796875 63.839844 22.75 63.789062 22.699219 C 64.039062 22.554688 64.285156 22.4375 64.527344 22.339844 Z M 58.667969 26.832031 C 59.261719 26.648438 59.851562 26.488281 60.417969 26.335938 C 59.890625 27.023438 59.554688 27.632812 59.519531 28.128906 L 59.410156 27.351562 C 59.410156 27.351562 58.765625 28.546875 58.039062 30.257812 C 57.300781 31.957031 56.601562 34.285156 56.289062 36.378906 C 56.773438 35.015625 57.746094 33.75 58.835938 32.578125 C 59.972656 31.453125 61.222656 30.417969 62.226562 29.429688 C 63.824219 27.96875 64.867188 26.585938 64.042969 25.023438 C 64.671875 24.566406 64.828125 23.992188 64.257812 23.230469 C 65.210938 22.933594 65.960938 22.53125 66.617188 21.972656 C 67.664062 22.058594 68.511719 22.566406 69.070312 23.21875 C 68.707031 23.523438 68.316406 23.863281 67.929688 24.234375 C 66.21875 25.773438 64.617188 27.804688 65 28.636719 C 65.777344 28.484375 66.503906 27.15625 67.4375 26.242188 C 68.351562 25.304688 69.371094 24.671875 70.503906 25.789062 C 72.976562 24.394531 72.007812 24.242188 70.867188 24.023438 C 70.953125 23.964844 71.027344 23.917969 71.117188 23.855469 C 71.933594 23.335938 73.015625 22.644531 74.101562 21.957031 C 75.1875 21.246094 76.3125 20.605469 77.160156 20.132812 C 78.007812 19.652344 78.574219 19.328125 78.574219 19.328125 C 80.058594 20.277344 79.015625 24.101562 77.867188 24.222656 C 76.933594 24.496094 75.9375 25.046875 74.890625 25.664062 C 73.847656 26.285156 72.742188 26.925781 71.636719 27.542969 C 69.425781 28.792969 67.105469 29.617188 64.691406 28.960938 C 63.683594 30.554688 64.761719 31.03125 65.320312 31.597656 C 65.894531 32.183594 65.929688 32.773438 63.121094 34.714844 C 59.074219 35.347656 55.273438 37.171875 51.808594 39.433594 C 51.9375 38.132812 52.691406 36.410156 53.34375 34.730469 C 54.335938 32.292969 55.160156 29.980469 53.0625 29.320312 C 53.0625 29.320312 52.617188 30.574219 52.171875 31.828125 C 52.085938 32.066406 52.003906 32.308594 51.925781 32.546875 C 50.878906 29.582031 54.886719 27.878906 58.667969 26.832031 Z M 48.898438 31.582031 C 49.347656 31.132812 49.730469 30.769531 50.007812 30.527344 C 50.28125 30.28125 50.441406 30.140625 50.441406 30.140625 L 51.898438 32.632812 C 51.789062 32.96875 51.691406 33.289062 51.609375 33.558594 C 51.464844 34.03125 51.371094 34.347656 51.371094 34.347656 C 50.65625 31.425781 47.101562 35.753906 46.238281 34.21875 C 47.214844 33.25 48.160156 32.3125 48.898438 31.582031 Z M 41.15625 39.761719 C 41.15625 39.761719 41.679688 39.117188 42.523438 38.207031 C 43.296875 37.355469 44.3125 36.230469 45.371094 35.097656 C 45.25 35.285156 45.125 35.476562 44.980469 35.695312 C 44.316406 36.753906 43.371094 38.101562 42.558594 39.546875 C 41.726562 40.976562 40.890625 42.386719 40.304688 43.46875 C 39.738281 44.5625 39.359375 45.289062 39.359375 45.289062 L 37.507812 44.226562 C 37.816406 43.847656 38.117188 43.480469 38.40625 43.128906 C 38.429688 43.113281 38.457031 43.097656 38.484375 43.082031 C 38.847656 42.871094 39.214844 42.65625 39.484375 42.5 C 39.765625 42.347656 39.949219 42.246094 39.949219 42.246094 C 39.863281 42 39.777344 41.789062 39.691406 41.59375 C 40.546875 40.601562 41.195312 39.9375 41.53125 39.824219 Z M 23.359375 89.777344 C 25.023438 84.710938 24.589844 91.601562 26.550781 89.707031 C 27.011719 89.46875 27.371094 89.15625 27.660156 88.785156 C 27.6875 89.011719 27.699219 89.25 27.695312 89.496094 C 27 91.113281 26.355469 92.746094 25.753906 94.394531 C 25.136719 94.667969 24.589844 94.441406 24.167969 93.851562 C 23.875 93.4375 23.640625 92.855469 23.484375 92.152344 C 23.339844 91.457031 23.308594 90.644531 23.359375 89.777344 Z M 87.035156 214.808594 C 87.464844 214.929688 87.890625 215.050781 88.320312 215.167969 C 88.320312 215.21875 88.316406 215.257812 88.316406 215.3125 C 87.828125 215.183594 87.40625 215.011719 87.035156 214.808594 Z M 96.722656 217.003906 C 98.730469 217.34375 100.746094 217.609375 102.765625 217.816406 C 101.355469 218.773438 99.035156 218.113281 96.722656 217.003906 Z M 148.496094 214 C 148.230469 214.046875 147.972656 214.082031 147.726562 214.082031 C 147.167969 214.070312 146.671875 213.960938 146.265625 213.773438 C 145.535156 213.445312 145.113281 212.875 145.0625 212.226562 C 146.171875 211.804688 147.277344 211.355469 148.371094 210.886719 C 148.191406 211.164062 148.074219 211.574219 148.058594 212.191406 C 148.222656 212.84375 148.652344 213.269531 149.265625 213.519531 C 148.988281 213.636719 148.730469 213.792969 148.496094 214 Z M 150.734375 210.597656 C 150.3125 210.507812 149.882812 210.410156 149.496094 210.394531 C 150.554688 209.925781 151.605469 209.4375 152.648438 208.921875 C 153.023438 210.976562 151.929688 210.863281 150.734375 210.597656 Z M 150.734375 210.597656 " fill-opacity="1" fill-rule="nonzero"/></g><path fill="#474091" d="M 135.972656 215.210938 C 135.972656 215.609375 135.972656 215.882812 135.972656 215.882812 C 136.050781 215.628906 136.039062 215.410156 135.972656 215.210938 Z M 135.972656 215.210938 " fill-opacity="1" fill-rule="nonzero"/><g fill="#ffffff" fill-opacity="1"><g transform="translate(58.495803, 182.639359)"><g><path d="M 3.863281 -127.507812 C 14.941406 -127.507812 15.714844 -118.363281 15.714844 -92.992188 L 15.714844 -35.804688 C 15.714844 -9.789062 35.546875 2.574219 59.246094 2.574219 C 82.945312 2.574219 102.265625 -10.046875 102.265625 -35.804688 L 102.265625 -92.992188 C 102.265625 -118.363281 103.035156 -127.507812 114.113281 -127.507812 L 114.113281 -128.796875 L 79.339844 -128.796875 L 79.339844 -127.507812 C 90.414062 -127.507812 91.1875 -118.363281 91.1875 -92.992188 L 91.1875 -35.804688 C 91.1875 -10.949219 77.535156 1.289062 59.246094 1.289062 C 40.957031 1.289062 26.789062 -10.820312 26.789062 -35.804688 L 26.789062 -92.992188 C 26.789062 -118.363281 27.5625 -127.507812 38.640625 -127.507812 L 38.640625 -128.796875 L 3.863281 -128.796875 Z M 3.863281 -127.507812 "/></g></g></g><g fill="#ffffff" fill-opacity="1"><g transform="translate(69.988201, 177.621771)"><g><path d="M 17.066406 1.941406 L 17.042969 1.914062 L 6.277344 4.332031 L 10.398438 -5.863281 L 10.363281 -5.90625 L 0.414062 0.515625 L 0.605469 0.738281 L 8.320312 -4.234375 L 4.605469 4.941406 L 4.652344 4.996094 L 14.503906 2.78125 L 8.175781 9.605469 L 9.035156 10.609375 Z M 17.066406 1.941406 "/></g></g></g><g fill="#ffffff" fill-opacity="1"><g transform="translate(86.032607, 193.718939)"><g><path d="M 8.414062 4.601562 L 9.652344 5.277344 L 10.835938 -7.441406 L 10.753906 -7.484375 L 0.554688 0.324219 L 0.910156 0.515625 L 4.9375 -2.550781 L 8.867188 -0.414062 Z M 5.199219 -2.765625 L 9.390625 -5.972656 L 8.902344 -0.75 Z M 5.199219 -2.765625 "/></g></g></g><g fill="#ffffff" fill-opacity="1"><g transform="translate(103.742324, 201.706731)"><g><path d="M 0.613281 -0.738281 L 0.53125 -0.324219 C 0.53125 -0.324219 1.457031 0.769531 3.398438 1.152344 C 5.34375 1.53125 7.460938 0.546875 7.851562 -1.449219 C 8.640625 -5.480469 2.632812 -5.425781 3.273438 -8.699219 C 3.527344 -9.976562 4.613281 -10.847656 6.160156 -10.542969 C 7.6875 -10.246094 8.535156 -9.3125 8.535156 -9.3125 L 8.589844 -9.695312 C 8.589844 -9.695312 7.640625 -10.570312 6.199219 -10.855469 C 4.78125 -11.132812 2.613281 -10.660156 2.171875 -8.410156 C 1.382812 -4.382812 7.4375 -4.765625 6.738281 -1.203125 C 6.394531 0.542969 4.894531 1.144531 3.457031 0.863281 C 1.90625 0.5625 1.148438 -0.128906 0.613281 -0.738281 Z M 0.613281 -0.738281 "/></g></g></g><g fill="#ffffff" fill-opacity="1"><g transform="translate(119.693394, 204.004765)"><g><path d="M 5.402344 -12.554688 C 2.132812 -12.113281 -0.609375 -9.964844 -0.0390625 -5.75 C 0.617188 -0.898438 4.734375 -0.289062 7.023438 -0.601562 C 9.292969 -0.910156 13.117188 -2.59375 12.460938 -7.445312 C 11.886719 -11.660156 8.652344 -12.996094 5.402344 -12.554688 Z M 6.980469 -0.910156 C 4.929688 -0.632812 1.933594 -1.152344 1.285156 -5.929688 C 0.648438 -10.632812 3.679688 -12.027344 5.441406 -12.265625 C 7.203125 -12.503906 10.496094 -11.96875 11.132812 -7.265625 C 11.78125 -2.484375 9.015625 -1.1875 6.980469 -0.910156 Z M 6.980469 -0.910156 "/></g></g></g><g fill="#ffffff" fill-opacity="1"><g transform="translate(141.580794, 199.445819)"><g><path d="M 0.296875 -13.664062 C -2.566406 -12.027344 -4.304688 -9.007812 -2.191406 -5.3125 C 0.238281 -1.0625 4.28125 -2.046875 6.285156 -3.191406 C 8.273438 -4.328125 11.1875 -7.324219 8.757812 -11.574219 C 6.648438 -15.265625 3.148438 -15.292969 0.296875 -13.664062 Z M 6.128906 -3.460938 C 4.332031 -2.433594 1.363281 -1.792969 -1.03125 -5.980469 C -3.386719 -10.101562 -1.101562 -12.527344 0.445312 -13.410156 C 1.988281 -14.292969 5.238281 -15.03125 7.597656 -10.910156 C 9.988281 -6.722656 7.914062 -4.480469 6.128906 -3.460938 Z M 6.128906 -3.460938 "/></g></g></g><g fill="#ffffff" fill-opacity="1"><g transform="translate(160.022987, 186.997256)"><g><path d="M -5.347656 -11.628906 L -8.347656 -7.953125 L 0.570312 -0.671875 L 3.027344 -3.679688 C 3.375 -4.105469 7.472656 -8.691406 2.660156 -12.621094 C -1.234375 -15.796875 -4 -13.277344 -5.347656 -11.628906 Z M 2.777344 -3.839844 L 1.167969 -1.863281 L -7.285156 -8.761719 L -5.546875 -10.894531 C -4.222656 -12.511719 -1.679688 -14.410156 1.800781 -11.570312 C 5.265625 -8.742188 4.367188 -5.785156 2.777344 -3.839844 Z M 2.777344 -3.839844 "/></g></g></g></svg>